<?xml version="1.0" encoding="UTF-8"?>
<svg id="Camada_1" data-name="Camada 1" xmlns="http://www.w3.org/2000/svg" viewBox="0 0 1076.26 220.45">
  <defs>
    <style>
      .cls-1 {
        fill: #dbdbdb;
      }

      .cls-2 {
        fill: #f31a59;
      }
    </style>
  </defs>
  <rect class="cls-2" x="164.15" y="91.37" width="266.38" height="19.19" transform="translate(15.7 239.83) rotate(-45)"/>
  <path class="cls-1" d="M208.22,30.35c42.8,0,65.91,27.04,65.91,65.38s-23.11,64.07-65.91,64.07-65.91-25.73-65.91-64.07,23.11-65.38,65.91-65.38ZM208.22,157.18c23.89,0,35.97-23.11,35.97-60.92s-12.08-64.85-35.97-64.85-35.97,27.04-35.97,65.12,12.08,60.65,35.97,60.65Z"/>
  <path class="cls-1" d="M0,156.65c6.83-3.41,10.5-11.55,10.5-19.17v-65.12c0-6.83-2.1-15.75-10.5-15.75l37.55-26.26v29.41c12.6-13.92,29.93-29.41,49.36-29.41,22.58,0,34.4,20.74,34.4,42.01v65.12c0,7.61,3.68,16.02,11.03,19.17v.53h-48.58v-.53c6.83-3.41,10.5-11.55,10.5-19.17v-65.12c0-14.7-5.78-32.82-21.79-32.82-13.65,0-26.26,12.87-34.92,22.32v75.62c0,7.61,3.68,16.02,11.03,19.17v.53H0v-.53Z"/>
  <path class="cls-1" d="M334.51,45.85c12.6-9.19,26.78-15.49,43.32-15.49,25.99,0,52.78,15.75,52.78,45.69v62.23c0,3.68,2.1,12.08,7.35,12.08,3.15,0,6.04-3.68,7.61-6.3h.53c-4.46,9.98-15.23,15.75-26.26,15.75s-16.28-6.3-16.28-17.59c-6.3,12.87-32.03,17.59-45.16,17.59-14.44,0-31.25-5.51-31.25-23.63,0-21.53,24.42-44.37,71.68-44.37h4.73v-24.42c0-17.07-7.09-34.66-24.94-34.66-16.28,0-29.93,14.44-29.93,29.15,0,2.1.26,3.94.79,5.51l-14.97-21.53ZM403.56,92.58c-22.06,0-52.25,2.1-52.25,32.56,0,15.49,7.61,28.88,25.73,28.88,10.5,0,21.01-4.46,26.52-12.6v-48.84Z"/>
  <path class="cls-1" d="M509.64,30.35l62.23-8.14v9.72h-47c22.84,4.99,38.86,21.27,38.86,44.11,0,28.1-23.37,45.95-54.09,45.95-13.39.79-37.28,6.04-37.28,16.28v.79c2.63,21.53,101.88-11.29,101.88,40.7,0,25.21-22.84,40.7-61.97,40.7-24.42,0-54.35-6.04-59.08-40.96l18.12-11.82c-9.19-1.84-15.75-6.04-15.75-15.23v-2.1c2.1-21.01,28.88-27.57,45.69-28.88-26.52-3.15-45.69-20.22-45.69-45.42,0-27.83,23.11-45.69,54.09-45.69ZM476.03,170.3c0,39.65,17.07,49.36,36.5,49.36,22.32,0,38.34-12.87,38.34-30.2s-17.33-20.74-37.28-20.74c-8.14,0-16.8.26-24.94.26-4.46,0-8.66,0-12.6-.53v1.84ZM509.9,120.15c12.34,0,22.32-18.12,22.32-44.37s-9.98-43.85-22.32-43.85-22.84,17.59-22.84,43.85,9.98,44.37,22.84,44.37Z"/>
  <path class="cls-1" d="M690.02,91.27v1.31h-86.91c.26,34.4,18.12,57.77,43.59,57.77,12.34,0,31.51-5.25,40.7-25.21-6.83,19.17-24.68,34.66-51.99,34.66-36.76,0-59.34-27.83-59.34-63.54,0-38.34,25.99-65.91,59.6-65.91s52.25,25.21,54.35,60.92ZM662.98,91.27c0-34.66-11.55-58.29-27.57-58.29s-32.3,25.73-32.3,58.29h59.87Z"/>
  <path class="cls-1" d="M700.79,156.65c6.83-3.41,10.5-11.55,10.5-19.17v-65.12c0-6.83-2.1-15.75-10.5-15.75l37.55-26.26v29.41c12.6-13.92,29.93-29.41,49.36-29.41,22.58,0,34.4,20.74,34.4,42.01v65.12c0,7.61,3.68,16.02,11.03,19.17v.53h-48.58v-.53c6.83-3.41,10.5-11.55,10.5-19.17v-65.12c0-14.7-5.78-32.82-21.79-32.82-13.65,0-26.26,12.87-34.92,22.32v75.62c0,7.61,3.68,16.02,11.03,19.17v.53h-48.58v-.53Z"/>
  <path class="cls-1" d="M942.87,80.5c0-16.54-14.18-47.53-36.23-47.53h-1.05c-19.69.79-35.45,25.99-35.45,58.55,0,34.92,17.85,58.82,43.59,58.82,12.34,0,31.51-5.25,40.7-25.21-6.83,19.17-24.68,34.66-51.99,34.66-36.76,0-59.34-27.83-59.34-63.54,0-38.86,26.52-65.91,63.02-65.91,22.58,0,40.17,10.24,47.79,22.06l-11.03,28.1Z"/>
  <path class="cls-1" d="M1076.26,33.5c-6.3,3.41-13.39,11.82-16.02,19.43l-52.51,144.15c-4.2,11.03-13.65,18.64-23.89,18.64-8.93,0-19.96-5.51-26.52-14.44l14.18-15.23c.26,18.38,3.15,28.62,12.34,28.62,7.61,0,16.28-7.09,20.74-18.64l14.18-38.86h-.26c-4.46,0-11.55-7.88-16.02-19.69l-31.25-84.81c-3.41-8.66-7.09-14.44-13.65-19.43v-.53h47.53v.53c-4.2,2.36-6.56,6.83-6.56,12.08,0,2.36.53,4.73,1.31,7.35l28.62,77.2,27.83-76.93c.79-2.36,1.31-4.99,1.31-7.35,0-5.25-2.36-9.98-6.83-12.08v-.53h25.47v.53Z"/>
</svg>